<?xml version="1.0" encoding="utf-8"?>
<!-- Generator: Adobe Illustrator 16.0.0, SVG Export Plug-In . SVG Version: 6.00 Build 0)  -->
<!DOCTYPE svg PUBLIC "-//W3C//DTD SVG 1.1//EN" "http://www.w3.org/Graphics/SVG/1.1/DTD/svg11.dtd">
<svg version="1.1" xmlns="http://www.w3.org/2000/svg" xmlns:xlink="http://www.w3.org/1999/xlink" x="0px" y="0px"
	 width="3014.082px" height="200px" viewBox="0 0 3014.082 200" enable-background="new 0 0 3014.082 200" xml:space="preserve">
<g id="_x30_1">
	<polygon fill="#F0F0F0" points="1417.457,82.416 1512.859,0 1417.457,0 	"/>
</g>
<g id="_x30_2">
	<polygon fill="#D7D7D7" points="1584.27,0 1569.79,58.416 1417.457,82.416 1512.859,0 	"/>
</g>
<g id="_x30_3">
	<polygon fill="#E9E9E9" points="1417.457,82.416 1565.374,99.666 1569.79,58.416 	"/>
</g>
<g id="_x30_4">
	<polygon fill="#E4E4E4" points="1584.27,0 1615.391,0 1569.79,58.416 	"/>
</g>
<g id="_x30_5">
	<polygon fill="#E1E1E1" points="1569.79,58.416 1592.456,58.416 1628.738,0 1615.391,0 	"/>
</g>
<g id="_x30_6">
	<polygon fill="#DBDBDB" points="1417.457,82.416 1496.811,188.557 1565.374,99.666 	"/>
</g>
<g id="_x30_7">
	<polygon fill="#E4E4E4" points="1569.79,58.416 1565.374,99.666 1591.567,58.418 	"/>
</g>
<g id="_x30_8">
	<polygon fill="#EAEAEA" points="1565.374,99.72 1672.71,171.387 1680.84,93.72 	"/>
</g>
<g id="_x30_9">
	<polygon fill="#DBDBDB" points="1628.738,0 1565.374,99.666 1680.84,93.915 1680.84,0 	"/>
	<polygon fill="#F0F0F0" points="290.166,82.229 385.28,0.062 290.166,0.062 	"/>
	<polygon fill="#D7D7D7" points="455.791,0.062 442.499,58.229 290.166,82.229 385.28,0.062 	"/>
	<polygon fill="#E9E9E9" points="290.166,82.229 438.083,99.479 442.499,58.229 	"/>
	<polygon fill="#E4E4E4" points="455.791,0.062 486.791,0.062 442.499,58.229 	"/>
	<polygon fill="#E1E1E1" points="442.499,58.229 465.165,58.229 501.216,0.062 486.791,0.062 	"/>
	<polygon fill="#DBDBDB" points="290.166,82.229 369.52,188.639 438.083,99.479 	"/>
	<polygon fill="#E4E4E4" points="442.499,58.229 438.083,99.479 464.276,58.231 	"/>
	<polygon fill="#EAEAEA" points="438.083,99.479 545.419,171.199 553.549,93.532 	"/>
	<polygon fill="#DBDBDB" points="501.216,0.062 438.083,99.479 553.549,93.728 553.549,0.062 	"/>
	<polygon fill="#D7D7D7" points="553.334,93.77 625.549,-0.271 553.549,0.062 	"/>
	<polygon fill="#DADADA" points="545.419,171.135 519.833,200 437.842,200 438.083,99.479 	"/>
	<polygon fill="#EDEDED" points="545.419,171.199 625.549,-0.271 553.334,93.77 	"/>
	<polyline fill="#DADADA" points="545.419,171.135 585.283,200 519.833,200 545.419,171.135 	"/>
	<polygon fill="#ECECEC" points="438.083,99.479 437.842,200 360.759,200 	"/>
	<polygon fill="#E3E3E3" points="290.166,82.229 302.88,200 361.229,200 369.52,188.639 	"/>
	<polyline fill="#DFDFDF" points="545.419,171.212 585.283,200 625.405,200 698.907,76.408 648.574,-0.259 625.574,-0.259 
		545.419,170.325 	"/>
	<polyline fill="#D8D8D8" points="648.574,-0.259 698.907,76.408 790.592,0 648.574,-0.259 	"/>
	<polygon fill="#E5E5E5" points="625.405,200 654.937,200 758.49,139.916 698.907,76.408 	"/>
	<polygon fill="#DADADA" points="698.907,76.396 790.592,0 815.457,0 758.24,91.062 	"/>
	<polygon fill="#E4E4E4" points="698.907,76.408 758.24,91.062 758.49,139.979 	"/>
	<polygon fill="#E7E7E7" points="758.123,91.333 758.373,140.188 823.062,0.013 815.457,0 	"/>
	<polygon fill="#E0E0E0" points="758.49,139.916 728.191,200 654.937,200 	"/>
	<polygon fill="#E2E2E2" points="758.49,139.979 899.18,102.979 841.583,0 823.062,0.013 	"/>
	<polygon fill="#EFEFEF" points="899.18,102.979 917.288,0 841.583,0 	"/>
	<polygon fill="#DDDDDD" points="728.191,200 799.667,200 758.49,139.979 	"/>
	<polygon fill="#E9E9E9" points="290.166,82.229 154.333,95.062 188.625,0 290.166,0.062 	"/>
	<polygon fill="#E3E3E3" points="154.333,95.062 197.833,200 302.88,200 290.166,82.229 	"/>
	<polygon fill="#DADADA" points="154.333,95.062 54.625,0 188.625,0 	"/>
	<polygon fill="#E4E4E4" points="154.333,95.062 58.864,80.604 44.958,0 54.625,0 	"/>
	<polygon fill="#F0F0F0" points="58.864,80.604 37.396,136.943 154.333,95.02 	"/>
	<polygon fill="#E2E2E2" points="37.396,136.943 95.864,200 197.833,200 154.333,95.068 	"/>
	<polygon fill="#D4D4D4" points="58.864,80.604 0,77.395 25.208,0 44.958,0 	"/>
	<polygon fill="#EBEBEB" points="37.396,136.943 0,77.395 58.864,80.604 	"/>
	<polygon fill="#D4D4D4" points="37.396,136.943 23.083,200 0,200 0,138.443 	"/>
	<polygon fill="#DDDDDD" points="758.49,139.979 799.667,200 852.333,200 899.18,102.979 	"/>
	<polygon fill="#EFEFEF" points="899.18,102.979 957.333,69.86 923,0 917.288,0 	"/>
	<polygon fill="#DADADA" points="1083.791,95.074 983.73,0 1117.106,0 	"/>
	<polygon fill="#E4E4E4" points="1083.791,95.074 988.322,80.616 973.495,0 983.73,0 	"/>
	<polygon fill="#F0F0F0" points="988.322,80.616 966.854,136.955 1083.791,95.032 	"/>
	<polygon fill="#E2E2E2" points="966.854,136.955 1025.322,200.146 1127.729,200.146 1083.791,95.081 	"/>
	<polygon fill="#D4D4D4" points="988.322,80.616 957.333,69.86 923,0 973.495,0 	"/>
	<polygon fill="#EBEBEB" points="966.854,136.955 899.18,102.979 957.333,69.86 988.322,80.616 	"/>
	<polygon fill="#D4D4D4" points="966.854,136.955 952.541,200.146 929.458,200 899.18,102.979 	"/>
	<polygon fill="#E0E0E0" points="966.854,136.955 952.541,200.146 1025.322,200.146 	"/>
	<polygon fill="#DEDEDE" points="899.18,102.979 852.333,200 929.458,200 	"/>
	<polygon fill="#E0E0E0" points="37.396,136.943 23.083,200 95.864,200 	"/>
</g>
<g id="_x31_0">
	<polygon fill="#D7D7D7" points="1680.625,93.958 1752.775,0 1680.84,0 	"/>
</g>
<g id="_x31_1">
	<polygon fill="#DADADA" points="1672.71,171.322 1647.124,199.891 1565.374,199.891 1565.596,99.903 	"/>
</g>
<g id="_x31_2">
	<polygon fill="#EDEDED" points="1672.71,171.387 1752.775,0 1680.625,93.958 	"/>
</g>
<g id="_x31_3">
	<polyline fill="#DADADA" points="1672.71,171.322 1712.574,199.903 1647.124,199.891 1672.71,171.322 	"/>
</g>
<g id="_x31_4">
	<polygon fill="#ECECEC" points="1565.374,99.909 1565.374,199.891 1488.05,199.884 	"/>
</g>
<g id="_x31_5">
	<polygon fill="#E3E3E3" points="1417.457,82.416 1430.171,199.884 1488.597,199.884 1496.811,188.557 	"/>
</g>
<g id="_x31_6">
	<polyline fill="#DFDFDF" points="1672.71,171.387 1712.068,200.071 1755.198,199.896 1826.198,76.595 1775.912,0 1752.775,0 
		1672.71,171.387 	"/>
</g>
<g id="_x31_7">
	<polyline fill="#D8D8D8" points="1775.912,0 1826.198,76.595 1918.43,0 1775.912,0 	"/>
</g>
<g id="_x31_8">
	<polygon fill="#E5E5E5" points="1752.696,200.071 1782.721,199.884 1885.781,140.166 1826.198,76.595 	"/>
</g>
<g id="_x31_9">
	<polygon fill="#DADADA" points="1826.198,76.583 1918.43,0 1942.813,0 1885.531,91.25 	"/>
</g>
<g id="_x32_0">
	<polygon fill="#E4E4E4" points="1826.198,76.595 1885.531,91.25 1885.781,140.166 	"/>
</g>
<g id="_x32_1">
	<polygon fill="#E7E7E7" points="1885.531,91.25 1885.781,140.166 1950.438,0 1942.813,0 	"/>
</g>
<g id="_x32_2">
	<polygon fill="#E0E0E0" points="1885.781,140.104 1855.482,199.884 1782.721,199.884 	"/>
</g>
<g id="_x32_3">
	<polygon fill="#E2E2E2" points="1885.781,140.166 2026.471,103.166 1968.874,0 1950.438,0 	"/>
</g>
<g id="_x32_4">
	<polygon fill="#EFEFEF" points="2026.471,103.166 2044.611,0 1968.874,0 	"/>
</g>
<g id="_x32_5">
	<polygon fill="#DDDDDD" points="1855.482,199.884 1926.958,200.071 1885.781,140.104 	"/>
</g>
<g id="_x32_6">
	<polygon fill="#E9E9E9" points="1417.457,82.416 1281.624,95.249 1315.001,0 1417.457,0 	"/>
</g>
<g id="_x32_6_1_">
	<polygon fill="#E3E3E3" points="1281.624,95.249 1325.124,199.884 1430.171,199.884 1417.457,82.416 	"/>
</g>
<g id="_x32_7">
	<polygon fill="#DADADA" points="1281.624,95.249 1181.379,0 1315.001,0 	"/>
</g>
<g id="_x32_8">
	<polygon fill="#E4E4E4" points="1281.624,95.249 1186.155,80.791 1171.295,0 1181.379,0 	"/>
</g>
<g id="_x32_9">
	<polygon fill="#F0F0F0" points="1186.562,80.749 1164.687,137.131 1281.624,95.207 	"/>
</g>
<g id="_x33_0">
	<polygon fill="#E2E2E2" points="1164.687,137.131 1223.155,199.891 1325.124,199.884 1281.624,95.256 	"/>
</g>
<g id="_x33_1">
	<polygon fill="#D4D4D4" points="1186.155,80.791 1127.291,77.583 1151.958,0 1171.295,0 	"/>
</g>
<g id="_x33_2">
	<polygon fill="#EBEBEB" points="1164.687,137.131 1083.791,95.074 1127.291,77.583 1186.155,80.791 	"/>
</g>
<g id="_x33_3">
	<polygon fill="#D4D4D4" points="1164.687,137.131 1150.374,200 1127.729,200.146 1083.791,95.074 	"/>
</g>
<g id="_x33_4">
	<polygon fill="#DDDDDD" points="1885.781,140.166 1926.958,200.071 1979.624,200 2026.471,103.166 	"/>
</g>
<g id="_x33_5">
	<polygon fill="#EFEFEF" points="2026.471,103.166 2084.624,70.047 2050.332,0 2044.611,0 	"/>
	<polygon fill="#F0F0F0" points="2346.914,82.429 2442.334,0 2346.914,0 	"/>
	<polygon fill="#D7D7D7" points="2513.73,0 2499.248,58.429 2346.914,82.429 2442.334,0 	"/>
	<polygon fill="#E9E9E9" points="2346.914,82.429 2494.832,99.679 2499.248,58.429 	"/>
	<polygon fill="#E4E4E4" points="2513.73,0 2544.858,0 2499.248,58.429 	"/>
	<polygon fill="#E1E1E1" points="2499.248,58.429 2521.914,58.429 2558.204,0 2544.858,0 	"/>
	<polygon fill="#DBDBDB" points="2346.914,82.429 2426.269,188.568 2494.832,99.679 	"/>
	<polygon fill="#E4E4E4" points="2499.238,58.491 2494.832,99.679 2521.025,58.431 	"/>
	<polygon fill="#EAEAEA" points="2494.832,99.732 2602.168,171.398 2610.298,93.732 	"/>
	<polygon fill="#DBDBDB" points="2558.204,0 2494.832,99.679 2610.298,93.928 2610.298,0 	"/>
	<polygon fill="#D7D7D7" points="2610.083,93.97 2682.265,0 2610.298,0 	"/>
	<polygon fill="#DADADA" points="2602.168,171.334 2576.582,199.902 2494.832,199.902 2495.055,99.916 	"/>
	<polygon fill="#EDEDED" points="2602.168,171.398 2682.265,0 2610.083,93.97 	"/>
	<polyline fill="#DADADA" points="2602.168,171.334 2642.897,199.707 2576.582,199.902 2602.168,171.334 	"/>
	<polygon fill="#ECECEC" points="2494.832,99.922 2494.591,199.896 2417.508,199.896 	"/>
	<polygon fill="#E3E3E3" points="2346.914,82.429 2359.629,199.896 2418.055,199.896 2426.269,188.568 	"/>
	<polyline fill="#DFDFDF" points="2602.168,171.412 2642.032,199.916 2684.656,199.908 2755.656,76.608 2705.416,0 2682.265,0 
		2602.168,170.525 	"/>
	<polyline fill="#D8D8D8" points="2705.416,0 2755.656,76.608 2847.903,0 2705.416,0 	"/>
	<polygon fill="#E5E5E5" points="2682.154,200.084 2712.179,200.084 2815.239,140.115 2755.656,76.608 	"/>
	<polygon fill="#DADADA" points="2755.656,76.596 2847.903,0 2872.278,0 2814.989,91.263 	"/>
	<polygon fill="#E4E4E4" points="2755.656,76.608 2814.989,91.263 2815.239,140.178 	"/>
	<polygon fill="#E7E7E7" points="2814.989,91.263 2815.239,140.115 2879.849,0 2872.278,0 	"/>
	<polygon fill="#E0E0E0" points="2815.239,140.115 2784.94,200.084 2712.179,200.084 	"/>
	<polygon fill="#E2E2E2" points="2815.239,140.178 2955.929,103.428 2898.332,0.115 2879.849,0.115 	"/>
	<polygon fill="#EFEFEF" points="2955.929,103.313 2974.072,0.135 2898.332,0.135 	"/>
	<polygon fill="#DDDDDD" points="2784.94,200.084 2856.624,200 2815.239,140.115 	"/>
	<polygon fill="#E9E9E9" points="2346.914,82.429 2211.082,95.262 2244.488,0 2346.914,0 	"/>
	<polygon fill="#E3E3E3" points="2211.082,95.262 2254.582,199.896 2359.629,199.896 2346.914,82.429 	"/>
	<polygon fill="#DADADA" points="2211.082,95.262 2110.824,0 2244.488,0 	"/>
	<polygon fill="#E4E4E4" points="2211.082,95.262 2115.613,80.804 2100.752,0 2110.824,0 	"/>
	<polygon fill="#F0F0F0" points="2116.02,80.762 2094.145,137.143 2211.082,95.22 	"/>
	<polygon fill="#E2E2E2" points="2094.145,137.143 2152.613,199.902 2254.582,199.896 2211.082,95.269 	"/>
	<polygon fill="#D4D4D4" points="2115.613,80.804 2084.624,70.047 2050.332,0 2100.752,0 	"/>
	<polygon fill="#EBEBEB" points="2094.145,137.143 2026.471,103.166 2084.624,70.047 2115.613,80.804 	"/>
	<polygon fill="#D4D4D4" points="2094.145,137.143 2079.832,200 2056.869,200 2026.471,103.166 	"/>
	<polygon fill="#DDDDDD" points="2815.239,140.178 2856.624,200 2908.854,200 2955.929,103.313 	"/>
	<polygon fill="#EFEFEF" points="2955.929,103.313 3014.082,70.06 3014.082,0 2974.072,0 	"/>
	<polygon fill="#DEDEDE" points="2955.929,103.178 2908.854,200 3014.082,181.344 	"/>
	<polygon fill="#E0E0E0" points="2094.145,137.143 2079.832,200 2152.613,199.902 	"/>
</g>
<g id="_x33_6">
	<polygon fill="#DEDEDE" points="2026.471,103.166 1979.624,200 2056.869,200 	"/>
</g>
<g id="_x33_7">
	<polygon fill="#E0E0E0" points="1164.687,137.131 1150.374,200 1223.155,199.891 	"/>
</g>
<g id="_x33_8">
	<polygon fill="#EBEBEB" points="1117.106,0 1151.958,0 1127.291,77.583 1083.791,95.074 	"/>
</g>
<g id="_x33_9">
	<polygon fill="#EBEBEB" points="3014.082,70.06 2955.929,103.313 3014.082,181.344 	"/>
</g>
<g id="_x34_0">
	<polygon fill="#E5E5E5" points="2908.854,200 3014.082,200 3014.082,181.344 	"/>
</g>
<g id="_x34_1">
	<polygon fill="#E5E5E5" points="0,77.395 0,138.443 37.396,136.943 	"/>
</g>
<g id="_x34_2">
	<polygon fill="#E5E5E5" points="0,77.395 0,0 25.208,0 	"/>
</g>
</svg>
